HIERARCHY
ROOT Hips
{
	OFFSET 0.00000 0.00000 0.00000
	CHANNELS 6 Xposition Yposition Zposition Yrotation Zrotation Xrotation 
	JOINT Lumbar
	{
		OFFSET 0 0 0
		CHANNELS 3 Zrotation Xrotation Yrotation
		JOINT Neck
		{
			OFFSET 0.00 0.2701 0.00
			CHANNELS 3 Zrotation Xrotation Yrotation
			End Site
			{
				OFFSET 0.00 0.1379 0.00
			}
		}
		JOINT RightShoulder
		{
			OFFSET 0.0119 0.2289 0.1181
			CHANNELS 3 Zrotation Xrotation Yrotation
			JOINT RightElbow
			{
				OFFSET 0.00 -0.1475 0.00
				CHANNELS 2 Zrotation Yrotation
				JOINT RightWrist
				{
					OFFSET 0.00 -0.1605 0.00
					CHANNELS 2 Zrotation Xrotation
					End Site
					{
						OFFSET 0.0040 -0.1068 0.0006
					}
				}
			}
		}
		JOINT LeftShoulder
		{
			OFFSET 0.0119 0.2289 -0.1181
			CHANNELS 3 Zrotation Xrotation Yrotation
			JOINT LeftElbow
			{
				OFFSET 0.00 -0.1475 0.00
				CHANNELS 2 Zrotation Yrotation
				JOINT LeftWrist
				{
					OFFSET 0.00 -0.1605 0.00
					CHANNELS 2 Zrotation Xrotation
					End Site
					{
						OFFSET 0.0040 -0.1068 -0.0006
					}
				}
			}
		}
	}
	JOINT RightHip
	{
		OFFSET 0.0316 -0.0424 0.0458
		CHANNELS 3 Zrotation Xrotation Yrotation
		JOINT RightKnee
		{
			OFFSET 0.00 -0.2438 0.00
			CHANNELS 1 Zrotation
			JOINT RightAnkle
			{
				OFFSET 0.00 -0.2449 0.00
				CHANNELS 3 Zrotation Xrotation Yrotation
				End Site
				{
					OFFSET 0.1237 -0.0542 0.0051
				}
			}
		}
	}
	JOINT LeftHip
	{
		OFFSET 0.0316 -0.0424 -0.0458
		CHANNELS 3 Zrotation Xrotation Yrotation
		JOINT LeftKnee
		{
			OFFSET 0.00 -0.2438 0.00
			CHANNELS 1 Zrotation
			JOINT LeftAnkle
			{
				OFFSET 0.00 -0.2449 0.00
				CHANNELS 3 Zrotation Xrotation Yrotation
				End Site
				{
					OFFSET 0.1237 -0.0542 -0.0051
				}
			}
		}
	}
}
MOTION
Frames: 33
Frame Time: 0.02
0.04101 -0.00572 0.00643 -185.05043 -32.48407 -1.94279 36.51701 3.17767 5.24577 -9.09759 -2.77661 -2.11902 39.94188 -61.71381 39.18175 48.25908 84.03055 7.02375 -1.82333 -1.05757 57.97316 -3.90032 55.76097 -86.98692 11.38658 1.55246 38.13015 -0.10374 -13.01145 -24.95316 -6.07448 -2.30835 -3.32403 53.31316 11.13714 7.92283 -42.87027 -7.16518 1.07332 2.79576
0.04014 -0.00561 0.00642 -185.20297 -32.47957 -1.87814 36.30599 3.07963 5.53998 -9.03862 -3.14208 -2.11903 45.12467 -61.71472 42.50115 46.81115 84.48312 7.39951 -1.84634 0.8467 58.70218 -5.54109 55.0591 -86.61358 11.39943 1.74742 38.00949 -0.19762 -13.05037 -24.93915 -6.05678 -2.28479 -3.31032 53.94863 11.35457 7.40024 -42.8725 -7.20209 1.09209 2.80682
0.03899 -0.00537 0.00669 -185.35175 -32.56984 -1.76675 36.18565 2.93227 5.85154 -8.95643 -3.53165 -2.11903 50.69995 -61.27806 45.76943 45.4285 84.90461 8.10642 -1.94479 3.10909 59.36111 -7.35308 54.55887 -86.32979 11.34763 1.93606 37.97626 -0.38798 -13.18794 -24.92496 -6.05259 -2.25035 -3.29234 54.54553 11.43918 6.71243 -42.27055 -7.24627 1.14549 2.83471
0.03794 -0.0052 0.00686 -185.49787 -32.61032 -1.6801 36.01708 2.80833 6.14738 -8.88374 -3.91111 -2.11904 56.05685 -60.99482 48.97567 44.00128 85.33191 8.67342 -2.0107 5.2492 60.03942 -9.11806 53.96532 -85.9963 11.33145 2.13878 37.89072 -0.5339 -13.28426 -24.90947 -6.04174 -2.22095 -3.27642 55.14504 11.58512 6.09512 -41.92051 -7.28638 1.18094 2.85379
0.03702 -0.00499 0.00694 -185.66205 -32.67475 -1.57944 35.87445 2.68074 6.47737 -8.81576 -4.28578 -2.11904 61.61925 -60.89887 52.5637 42.63522 85.79914 9.19712 -2.0679 7.23916 60.77749 -10.77073 53.38417 -85.69393 11.28815 2.30056 37.85222 -0.68163 -13.36704 -24.8987 -6.03254 -2.19096 -3.25986 55.8088 11.73255 5.50021 -41.67003 -7.32956 1.2245 2.87718
0.03575 -0.00484 0.00728 -185.78888 -32.71527 -1.49727 35.70257 2.54891 6.74032 -8.73213 -4.67618 -2.11904 66.82898 -60.31149 55.3379 41.16186 86.17317 9.88816 -2.16143 9.61659 61.36986 -12.68845 52.8266 -85.34479 11.28729 2.54169 37.74065 -0.8484 -13.49888 -24.87864 -6.02335 -2.15983 -3.24374 56.32986 11.84311 4.82094 -41.07139 -7.3682 1.25974 2.89577
0.03368 -0.00492 0.00825 -185.80085 -32.64459 -1.46897 35.40484 2.41588 6.80907 -8.61338 -5.10985 -2.11907 71.01393 -58.46327 55.85274 39.32869 86.30614 10.97226 -2.33937 13.00541 61.59902 -15.32957 52.24134 -84.91951 11.40692 3.02811 37.38331 -1.04904 -13.76658 -24.8308 -6.01063 -2.12643 -3.22913 56.45641 11.88495 3.91662 -39.60743 -7.39172 1.26518 2.89767
0.03127 -0.00506 0.0095 -185.77746 -32.55094 -1.46221 35.07881 2.28028 6.81034 -8.47906 -5.55775 -2.1191 74.81644 -56.13833 55.55121 37.39443 86.34356 12.21102 -2.55074 16.76343 61.67865 -18.22289 51.67975 -84.43376 11.57363 3.58964 36.95408 -1.26495 -14.07593 -24.77408 -5.99761 -2.0926 -3.21529 56.44206 11.89315 2.93885 -37.82268 -7.41056 1.26096 2.89414
0.02898 -0.00518 0.01065 -185.77862 -32.48264 -1.45114 34.78129 2.14698 6.84558 -8.3505 -5.99558 -2.11913 78.76104 -54.03906 55.63654 35.53635 86.41926 13.37107 -2.74567 20.3313 61.81226 -20.97717 51.13432 -83.92627 11.72709 4.09975 36.57328 -1.47056 -14.35003 -24.72304 -5.98494 -2.06012 -3.20162 56.49858 11.91585 2.01451 -36.21708 -7.43208 1.26025 2.89274
0.02683 -0.00528 0.01167 -185.74444 -32.35493 -1.41566 34.42183 2.00793 6.86792 -8.22735 -6.44921 -2.11917 82.8577 -51.88552 55.65482 33.55013 86.51829 14.57836 -2.94957 24.00803 62.00458 -23.8421 50.48197 -83.62231 11.84445 4.6818 36.12937 -1.69289 -14.69584 -24.66525 -5.9717 -2.02234 -3.18557 56.52555 11.93821 0.99767 -34.44841 -7.45156 1.26437 2.89331
0.02431 -0.00542 0.01303 -185.77478 -32.34391 -1.43631 34.18222 1.87998 6.90034 -8.08869 -6.87328 -2.11919 86.5367 -49.73858 55.61791 31.80945 86.54312 15.71951 -3.14035 27.53892 62.03741 -26.53255 50.05592 -82.88792 12.04837 5.13304 35.79814 -1.8838 -14.9017 -24.61915 -5.95956 -1.9957 -3.17474 56.58033 11.95391 0.16095 -32.95265 -7.47405 1.25579 2.88831
0.02089 -0.00571 0.01523 -185.99858 -32.66405 -1.61091 34.29124 1.79135 6.98175 -7.91831 -7.20992 -2.1192 89.1933 -47.71966 55.64044 30.74175 86.41499 16.64023 -3.29876 30.59094 61.68815 -28.69095 50.24257 -80.90339 12.4856 5.19445 35.80117 -1.97492 -14.70356 -24.61043 -5.94917 -1.99948 -3.17799 56.75294 11.9693 -0.18298 -32.27753 -7.50608 1.21349 2.86872
0.01711 -0.00603 0.01777 -186.28748 -33.1015 -1.84081 34.51946 1.71276 7.07481 -7.73159 -7.51668 -2.1192 91.43323 -45.7274 55.63346 29.9301 86.21062 17.48743 -3.44038 33.47821 61.17956 -30.66136 50.65653 -78.50211 13.00748 5.12334 35.91904 -2.03524 -14.36425 -24.61359 -5.94012 -2.01456 -3.18649 56.95734 11.97805 -0.33786 -31.89305 -7.54115 1.15876 2.84371
0.01348 -0.00632 0.02018 -186.54203 -33.48235 -2.0427 34.6855 1.62446 7.15922 -7.5477 -7.83847 -2.1192 93.83799 -43.72958 55.63234 29.02009 86.02219 18.36656 -3.58122 36.43071 60.73037 -32.71023 50.96931 -76.3407 13.48722 5.11995 35.97974 -2.11511 -14.09357 -24.60898 -5.93121 -2.0249 -3.19277 57.1431 11.98388 -0.56394 -31.38631 -7.57483 1.11021 2.82142
0.00989 -0.00667 0.02249 -186.81477 -33.87562 -2.25701 34.88412 1.55759 7.25489 -7.38272 -8.15444 -2.11921 96.33528 -41.68693 55.63485 28.0296 85.9081 19.25742 -3.75805 39.44011 60.33198 -34.80009 51.2732 -73.96216 13.98439 5.08847 36.05729 -2.17165 -13.80451 -24.61267 -5.91896 -2.03385 -3.1985 57.34173 12.01308 -0.85563 -30.82743 -7.60873 1.0591 2.79785
0.00615 -0.0069 0.02509 -187.06644 -34.27205 -2.45887 35.04392 1.44875 7.33143 -7.17461 -8.4755 -2.11921 98.54326 -39.75052 55.63309 27.27008 85.62391 20.10452 -3.85642 42.28313 59.79045 -36.75333 51.65038 -71.94015 14.46433 5.08188 36.13014 -2.26987 -13.52094 -24.60378 -5.9142 -2.04799 -3.20644 57.52284 11.99303 -0.96373 -30.44928 -7.64255 1.01051 2.77574
0.00208 -0.00677 0.02841 -187.23621 -34.64085 -2.60821 35.06408 1.2196 7.34632 -6.85232 -8.81575 -2.11921 100.07612 -38.10171 55.63373 27.07644 84.87521 20.84578 -3.73399 44.73611 58.90552 -38.40042 52.16535 -70.98446 14.87939 5.18585 36.14308 -2.48511 -13.27526 -24.54227 -5.92816 -2.07704 -3.22067 57.64931 11.83413 -0.62017 -30.51154 -7.67881 0.97177 2.75907
-0.00211 -0.00651 0.03202 -187.384 -35.0102 -2.74399 35.0417 0.94838 7.34273 -6.48718 -9.16245 -2.11921 101.32951 -36.56128 55.6339 27.10902 83.96095 21.5452 -3.53466 47.01886 57.88026 -39.90954 52.74838 -70.40637 15.27335 5.31724 36.15113 -2.74414 -13.04164 -24.47058 -5.94998 -2.11029 -3.23665 57.75742 11.62684 -0.09688 -30.745 -7.71431 0.93609 2.74409
-0.00624 -0.0063 0.03551 -187.54738 -35.38458 -2.88871 35.04118 0.69755 7.35225 -6.14106 -9.5076 -2.11921 102.69908 -34.97309 55.63387 27.04407 83.13183 22.26501 -3.37563 49.36 56.91174 -41.46529 53.30519 -69.66849 15.67447 5.42959 36.17421 -2.98693 -12.81048 -24.41338 -5.96924 -2.1394 -3.25085 57.87375 11.44487 0.35121 -30.89359 -7.7479 0.89912 2.72832
-0.01043 -0.00613 0.03899 -187.69008 -35.74122 -3.0231 35.03452 0.44116 7.34344 -5.79598 -9.84604 -2.11922 104.10164 -33.37888 55.63412 26.96409 82.25824 22.97689 -3.19297 51.78039 55.9678 -43.08654 53.84754 -68.86473 16.08872 5.56539 36.14748 -3.21393 -12.54232 -24.3148 -5.98409 -2.17831 -3.26938 57.99191 11.24881 0.78093 -31.08197 -7.79097 0.8612 2.71239
-0.01451 -0.00585 0.04254 -187.86886 -36.13281 -3.17576 35.02851 0.18691 7.36676 -5.43916 -10.20019 -2.11922 105.37199 -31.82305 55.63403 26.96783 81.43889 23.69588 -3.04209 53.99155 54.94076 -44.53595 54.4364 -68.29508 16.46961 5.6603 36.22147 -3.48369 -12.35413 -24.30002 -6.01019 -2.19767 -3.27924 58.10114 11.07041 1.28607 -31.22433 -7.81423 0.82628 2.69733
-0.0183 -0.00529 0.04618 -188.16054 -36.62551 -3.37591 35.03847 -0.05697 7.49657 -5.05715 -10.59776 -2.11922 106.36841 -30.34544 55.63445 27.13247 80.81293 24.44793 -2.9923 55.71473 53.72484 -45.5869 55.10934 -68.26791 16.76222 5.63813 36.57787 -3.86898 -12.40025 -24.51753 -6.06377 -2.16179 -3.26459 58.19327 10.9553 1.98116 -31.19736 -7.78172 0.79794 2.68382
-0.02199 -0.00463 0.04987 -188.48759 -37.15186 -3.59578 35.04931 -0.29622 7.65693 -4.66555 -11.01071 -2.11922 107.23812 -28.9037 55.6338 27.37717 80.2485 25.2081 -2.97799 57.22382 52.42969 -46.46184 55.83128 -68.46845 17.02182 5.57393 37.03468 -4.29446 -12.5243 -24.81991 -6.12876 -2.10601 -3.24114 58.27633 10.85921 2.74022 -31.11689 -7.72952 0.77278 2.67125
-0.02572 -0.00401 0.05353 -188.7928 -37.65912 -3.81049 35.0566 -0.53378 7.79442 -4.28046 -11.41579 -2.11923 108.15455 -27.44524 55.63398 27.59111 79.65245 25.96312 -2.95145 58.80167 51.16765 -47.39162 56.54713 -68.57338 17.29695 5.5281 37.44292 -4.69625 -12.6023 -25.08445 -6.18958 -2.05949 -3.22181 58.36139 10.75263 3.45222 -31.05961 -7.68716 0.74685 2.65858
-0.02947 -0.0034 0.05725 -189.12118 -38.18259 -4.00882 35.07555 -0.78877 7.96876 -3.88448 -11.82505 -2.11923 109.1117 -25.98897 55.63572 27.78081 79.06015 26.72378 -2.90686 60.49887 49.91322 -48.42612 57.19506 -68.65446 17.56907 5.48668 37.86344 -5.12224 -12.72458 -25.34571 -6.24623 -2.01243 -3.2021 58.45481 10.65199 4.24655 -31.01288 -7.64103 0.71812 2.64458
-0.03314 -0.00275 0.06085 -189.41053 -38.68014 -4.24597 35.07125 -1.00588 8.07443 -3.50985 -12.22883 -2.11923 109.95155 -24.53948 55.63012 28.04777 78.48417 27.47394 -2.90794 61.89274 48.6255 -49.1982 57.99787 -68.83881 17.83999 5.42519 38.28229 -5.50706 -12.7742 -25.63391 -6.31434 -1.96145 -3.18096 58.52888 10.54436 4.88223 -30.92961 -7.59803 0.69602 2.63357
-0.03664 -0.00203 0.0641 -189.5785 -39.0989 -4.58671 35.00008 -1.11846 7.97807 -3.19358 -12.61665 -2.11924 110.55213 -23.06409 55.63891 28.41585 77.87482 28.2041 -3.03872 62.55566 47.27179 -49.33033 59.19292 -69.2102 18.1143 5.32412 38.67145 -5.76542 -12.59303 -25.97672 -6.40979 -1.90679 -3.15905 58.55177 10.41107 5.06249 -30.75384 -7.56902 0.69076 2.63023
-0.04006 -0.00128 0.06721 -189.70691 -39.49018 -4.9657 34.90617 -1.19298 7.81256 -2.89998 -12.99772 -2.11924 111.03032 -21.60102 55.63501 28.87544 77.29148 28.92162 -3.21247 62.91237 45.88804 -49.20016 60.54613 -69.68092 18.38863 5.20361 39.05528 -5.98095 -12.33738 -26.34302 -6.51658 -1.84851 -3.13586 58.5556 10.27069 5.08003 -30.54314 -7.54378 0.69216 2.62991
-0.04351 -0.00055 0.07037 -189.85685 -39.89337 -5.3264 34.82442 -1.28549 7.68202 -2.59802 -13.38009 -2.11924 111.53105 -20.15455 55.613 29.35222 76.73985 29.63797 -3.3587 63.37339 44.51295 -49.15995 61.84201 -70.13565 18.66432 5.08763 39.44227 -6.21826 -12.12394 -26.69873 -6.61919 -1.79023 -3.11253 58.56813 10.1349 5.17251 -30.3506 -7.51645 0.69093 2.6284
-0.04698 0.00021 0.07359 -189.9933 -40.30023 -5.69148 34.73482 -1.37524 7.53756 -2.28711 -13.77099 -2.11925 112.16752 -18.61329 55.68729 29.5822 76.01042 30.38373 -3.53928 63.9702 43.15111 -49.22555 63.07839 -70.48695 18.9342 4.98644 39.83082 -6.44865 -11.88077 -27.05942 -6.71827 -1.73779 -3.09179 58.57998 9.9939 5.26411 -30.14661 -7.48993 0.68814 2.62618
-0.05039 0.00093 0.07665 -190.14763 -40.69242 -6.0564 34.65634 -1.4614 7.40531 -2.00085 -14.14167 -2.11925 112.49303 -17.27488 55.56357 30.34887 75.65177 31.06515 -3.6588 64.21899 41.76182 -49.02514 64.47542 -71.05989 19.21517 4.8528 40.21206 -6.68098 -11.67727 -27.41121 -6.82702 -1.67311 -3.06568 58.58908 9.86195 5.31686 -29.95888 -7.46297 0.69015 2.62613
-0.05366 0.0015 0.07931 -190.36392 -41.05119 -6.41009 34.61263 -1.54981 7.32337 -1.77303 -14.46336 -2.11926 111.99671 -16.46774 54.84631 32.55798 76.35457 31.5713 -3.59275 63.54004 40.25043 -48.02904 66.27877 -72.34493 19.53984 4.61305 40.58655 -6.94409 -11.63265 -27.75772 -6.96152 -1.57124 -3.02318 58.59335 9.75582 5.31196 -29.82452 -7.43309 0.70374 2.63123
-0.05687 0.00202 0.0818 -190.59871 -41.39585 -6.76233 34.58115 -1.63538 7.25606 -1.57014 -14.76384 -2.11926 111.19025 -15.8687 53.93812 35.30674 77.422 32.01294 -3.46472 62.52888 38.72224 -46.79648 68.23764 -73.82711 19.87373 4.34516 40.95091 -7.20775 -11.62523 -28.08914 -7.10492 -1.45815 -2.97576 58.59589 9.6592 5.27174 -29.70804 -7.40288 0.7219 2.6384
